<svg width="32" height="32" viewBox="0 0 32 32" fill="none" xmlns="http://www.w3.org/2000/svg">
<path d="M11 10V8.14429C11 6.63098 12.1267 5.34687 13.6348 5.2217C14.1325 5.18039 14.6318 5.14478 15.1327 5.11492M21 24H24C25.6569 24 27 22.6569 27 21V8.14429C27 6.63098 25.8733 5.34687 24.3652 5.2217C23.8675 5.18039 23.3682 5.14478 22.8673 5.11492M21 25V22.5C21 20.0147 18.9853 18 16.5 18H14.5C13.6716 18 13 17.3284 13 16.5V14.5C13 12.0147 10.9853 10 8.5 10H7M22.8673 5.11492C22.4897 3.89009 21.3488 3 20 3H18C16.6512 3 15.5103 3.89009 15.1327 5.11492M22.8673 5.11492C22.9536 5.39469 23 5.69192 23 6V7H15V6C15 5.69192 15.0464 5.39469 15.1327 5.11492M9 10H6.5C5.67157 10 5 10.6716 5 11.5V27.5C5 28.3284 5.67157 29 6.5 29H19.5C20.3284 29 21 28.3284 21 27.5V22C21 15.3726 15.6274 10 9 10Z" stroke="#7C3AED" stroke-width="1.5" stroke-linecap="round" stroke-linejoin="round"/>
</svg>
