<svg width="32" height="32" viewBox="0 0 32 32" fill="none" xmlns="http://www.w3.org/2000/svg">
<g clip-path="url(#clip0_803_613)">
<path d="M5.44225 21.3614C5.22708 21.7407 4.94019 22.1545 4.72502 22.4993C4.50986 22.8097 4.61744 23.2235 4.97605 23.4303L9.63802 26.189C9.99663 26.3959 10.427 26.2924 10.6421 25.9476C10.8214 25.6372 11.0725 25.2579 11.3235 24.8441C13.1883 21.9131 15.0172 22.2579 18.3882 23.8097L23.0143 25.9131C23.3729 26.0855 23.8032 25.9131 23.9825 25.5683L26.2059 20.7407C26.3494 20.3959 26.2059 19.9821 25.8473 19.8441C24.8791 19.3959 22.9425 18.5338 21.1853 17.7062C14.8738 14.8097 9.53043 14.9821 5.44225 21.3614Z" fill="url(#paint0_linear_803_613)"/>
<path d="M26.3492 10.4305C26.5644 10.0512 26.8512 9.63739 27.0664 9.29256C27.2816 8.98222 27.174 8.56842 26.8154 8.36153L22.1534 5.60291C21.7948 5.39601 21.3645 5.49946 21.1493 5.84429C20.97 6.15463 20.719 6.53394 20.4679 6.94773C18.6032 9.87877 16.7742 9.53394 13.4033 7.98222L8.81303 5.84429C8.45441 5.67187 8.02408 5.84429 7.84477 6.18911L5.62137 11.0167C5.47793 11.3615 5.62137 11.7753 5.97999 11.9133C6.94824 12.3615 8.88475 13.2236 10.642 14.0512C16.9177 16.9822 22.261 16.8098 26.3492 10.4305Z" fill="url(#paint1_linear_803_613)"/>
</g>
<defs>
<linearGradient id="paint0_linear_803_613" x1="26.0562" y1="27.6209" x2="12.2314" y2="19.3592" gradientUnits="userSpaceOnUse">
<stop stop-color="#7C3AED"/>
<stop offset="0.6806" stop-color="#7C3AED"/>
<stop offset="1" stop-color="#975EF8"/>
</linearGradient>
<linearGradient id="paint1_linear_803_613" x1="5.75417" y1="4.16797" x2="19.5789" y2="12.4296" gradientUnits="userSpaceOnUse">
<stop stop-color="#7C3AED"/>
<stop offset="0.6806" stop-color="#7C3AED"/>
<stop offset="1" stop-color="#965BFC"/>
</linearGradient>
<clipPath id="clip0_803_613">
<rect width="32" height="32" fill="white"/>
</clipPath>
</defs>
</svg>
