<svg width="32" height="32" viewBox="0 0 32 32" fill="none" xmlns="http://www.w3.org/2000/svg">
<path d="M12.4645 19.5355C10.5118 17.5829 10.5118 14.4171 12.4645 12.4645M19.5355 12.4645C21.4882 14.4171 21.4882 17.5829 19.5355 19.5355M9.63604 22.364C6.12132 18.8492 6.12132 13.1508 9.63604 9.63604M22.364 9.63604C25.8787 13.1508 25.8787 18.8492 22.364 22.364M6.80761 25.1924C1.7308 20.1156 1.7308 11.8844 6.80761 6.80762M25.1924 6.80762C30.2692 11.8844 30.2692 20.1156 25.1924 25.1924M16 16H16.01V16.01H16V16ZM16.5 16C16.5 16.2761 16.2761 16.5 16 16.5C15.7239 16.5 15.5 16.2761 15.5 16C15.5 15.7239 15.7239 15.5 16 15.5C16.2761 15.5 16.5 15.7239 16.5 16Z" stroke="#7C3AED" stroke-width="1.5" stroke-linecap="round" stroke-linejoin="round"/>
</svg>
